G04*
G04 #@! TF.GenerationSoftware,Altium Limited,Altium Designer,18.0.12 (696)*
G04*
G04 Layer_Color=32768*
%FSLAX25Y25*%
%MOIN*%
G70*
G01*
G75*
%ADD11C,0.00394*%
%ADD12C,0.00787*%
%ADD40C,0.00197*%
D11*
X36840Y41232D02*
X40777D01*
X38809Y39263D02*
Y43200D01*
X8809Y39263D02*
Y43200D01*
X6840Y41232D02*
X10777D01*
X17309Y45088D02*
Y48828D01*
X15439Y46958D02*
X19179D01*
X30800Y37072D02*
Y40812D01*
X28930Y38942D02*
X32670D01*
X30800Y26988D02*
Y30728D01*
X28930Y28858D02*
X32670D01*
X5643Y-4234D02*
Y242D01*
Y-4234D02*
X41864D01*
Y242D01*
X40289Y11266D02*
Y19140D01*
Y11266D02*
X41864D01*
Y242D02*
Y11266D01*
X5643Y242D02*
Y11266D01*
X7218D01*
Y19140D01*
X40289D01*
X23753Y10266D02*
Y12266D01*
X22753Y11266D02*
X24754D01*
X21400Y29231D02*
Y33168D01*
X19431Y31200D02*
X23368D01*
X21400Y36731D02*
Y40668D01*
X19431Y38700D02*
X23368D01*
X26813Y46300D02*
X28387D01*
X27600Y45513D02*
Y47087D01*
D12*
X33415Y20838D02*
X44202D01*
Y61625D01*
X33415D02*
X44202D01*
X33415Y20838D02*
Y61625D01*
X3415Y20838D02*
Y61625D01*
X14202D01*
Y20838D02*
Y61625D01*
X3415Y20838D02*
X14202D01*
D40*
X14946Y51092D02*
X19671D01*
X14946Y42824D02*
X19671D01*
Y51092D01*
X14946Y42824D02*
Y51092D01*
X28438Y34808D02*
X33162D01*
X28438Y43076D02*
X33162D01*
X28438Y34808D02*
Y43076D01*
X33162Y34808D02*
Y43076D01*
X28438Y32991D02*
X33162D01*
X28438Y24724D02*
X33162D01*
Y32991D01*
X28438Y24724D02*
Y32991D01*
X14377Y28050D02*
Y34350D01*
Y28050D02*
X28577D01*
X14377Y34350D02*
X28577D01*
Y28050D02*
Y34350D01*
X14377Y35550D02*
Y41850D01*
Y35550D02*
X28577D01*
X14377Y41850D02*
X28577D01*
Y35550D02*
Y41850D01*
X22679Y48465D02*
X32521D01*
X22679Y44135D02*
Y48465D01*
Y44135D02*
X32521D01*
Y48465D01*
M02*
