G04*
G04 #@! TF.GenerationSoftware,Altium Limited,Altium Designer,18.0.12 (696)*
G04*
G04 Layer_Color=32896*
%FSLAX25Y25*%
%MOIN*%
G70*
G01*
G75*
%ADD10C,0.00984*%
%ADD12C,0.00787*%
%ADD38C,0.02362*%
G36*
X30707Y19612D02*
X30750Y19549D01*
X30797Y19491D01*
X30843Y19436D01*
X30886Y19393D01*
X30922Y19358D01*
X30945Y19335D01*
X30949Y19331D01*
X30953Y19327D01*
X31027Y19264D01*
X31105Y19206D01*
X31183Y19155D01*
X31253Y19112D01*
X31315Y19077D01*
X31343Y19066D01*
X31366Y19054D01*
X31382Y19042D01*
X31397Y19034D01*
X31405Y19030D01*
X31409D01*
Y18722D01*
X31354Y18746D01*
X31296Y18773D01*
X31241Y18797D01*
X31191Y18824D01*
X31148Y18847D01*
X31113Y18867D01*
X31089Y18882D01*
X31085Y18886D01*
X31081D01*
X31015Y18925D01*
X30957Y18968D01*
X30906Y19003D01*
X30863Y19038D01*
X30828Y19066D01*
X30801Y19085D01*
X30785Y19101D01*
X30781Y19105D01*
Y17100D01*
X30465D01*
Y19674D01*
X30672D01*
X30707Y19612D01*
D02*
G37*
G36*
X34100Y18180D02*
Y18106D01*
X34096Y18036D01*
X34092Y17970D01*
X34084Y17907D01*
X34077Y17853D01*
X34069Y17798D01*
X34061Y17751D01*
X34049Y17708D01*
X34042Y17669D01*
X34034Y17634D01*
X34026Y17603D01*
X34018Y17580D01*
X34010Y17560D01*
X34006Y17549D01*
X34003Y17541D01*
Y17537D01*
X33960Y17455D01*
X33909Y17381D01*
X33858Y17322D01*
X33804Y17272D01*
X33757Y17229D01*
X33714Y17201D01*
X33698Y17190D01*
X33691Y17186D01*
X33683Y17178D01*
X33679D01*
X33589Y17139D01*
X33488Y17108D01*
X33390Y17088D01*
X33297Y17073D01*
X33254Y17069D01*
X33215Y17065D01*
X33180Y17061D01*
X33148D01*
X33125Y17057D01*
X33090D01*
X32957Y17065D01*
X32840Y17081D01*
X32786Y17088D01*
X32739Y17100D01*
X32692Y17116D01*
X32653Y17127D01*
X32618Y17139D01*
X32583Y17155D01*
X32556Y17166D01*
X32536Y17174D01*
X32517Y17186D01*
X32505Y17190D01*
X32497Y17198D01*
X32493D01*
X32415Y17256D01*
X32345Y17314D01*
X32290Y17377D01*
X32247Y17435D01*
X32216Y17490D01*
X32193Y17529D01*
X32185Y17545D01*
X32181Y17556D01*
X32177Y17564D01*
Y17568D01*
X32146Y17658D01*
X32127Y17759D01*
X32111Y17861D01*
X32099Y17958D01*
X32095Y18005D01*
X32092Y18048D01*
Y18083D01*
X32088Y18118D01*
Y18145D01*
Y18165D01*
Y18176D01*
Y18180D01*
Y19662D01*
X32427D01*
Y18180D01*
Y18094D01*
X32435Y18013D01*
X32443Y17942D01*
X32450Y17876D01*
X32462Y17814D01*
X32478Y17763D01*
X32493Y17716D01*
X32505Y17673D01*
X32520Y17638D01*
X32536Y17607D01*
X32548Y17584D01*
X32563Y17564D01*
X32571Y17549D01*
X32579Y17537D01*
X32587Y17533D01*
Y17529D01*
X32618Y17498D01*
X32657Y17474D01*
X32739Y17432D01*
X32825Y17404D01*
X32914Y17381D01*
X32992Y17369D01*
X33027Y17365D01*
X33059D01*
X33086Y17361D01*
X33121D01*
X33199Y17365D01*
X33269Y17373D01*
X33332Y17389D01*
X33386Y17404D01*
X33429Y17416D01*
X33460Y17432D01*
X33480Y17439D01*
X33488Y17443D01*
X33542Y17478D01*
X33585Y17517D01*
X33624Y17560D01*
X33652Y17599D01*
X33675Y17634D01*
X33691Y17662D01*
X33698Y17681D01*
X33702Y17689D01*
X33714Y17720D01*
X33722Y17755D01*
X33737Y17833D01*
X33745Y17915D01*
X33753Y17993D01*
X33757Y18067D01*
X33761Y18098D01*
Y18126D01*
Y18149D01*
Y18165D01*
Y18176D01*
Y18180D01*
Y19662D01*
X34100D01*
Y18180D01*
D02*
G37*
G36*
X9357Y6866D02*
X9454Y6847D01*
X9544Y6819D01*
X9618Y6788D01*
X9676Y6753D01*
X9700Y6737D01*
X9719Y6726D01*
X9739Y6714D01*
X9751Y6706D01*
X9754Y6702D01*
X9758Y6699D01*
X9828Y6628D01*
X9883Y6550D01*
X9930Y6468D01*
X9961Y6390D01*
X9988Y6320D01*
X9996Y6289D01*
X10004Y6262D01*
X10008Y6242D01*
X10012Y6227D01*
X10016Y6215D01*
Y6211D01*
X9700Y6156D01*
X9684Y6238D01*
X9661Y6308D01*
X9637Y6367D01*
X9610Y6414D01*
X9587Y6453D01*
X9567Y6480D01*
X9552Y6496D01*
X9548Y6500D01*
X9497Y6539D01*
X9446Y6566D01*
X9396Y6589D01*
X9345Y6601D01*
X9306Y6609D01*
X9271Y6617D01*
X9240D01*
X9173Y6613D01*
X9115Y6597D01*
X9064Y6582D01*
X9021Y6558D01*
X8986Y6539D01*
X8959Y6519D01*
X8943Y6504D01*
X8939Y6500D01*
X8900Y6457D01*
X8873Y6406D01*
X8850Y6359D01*
X8838Y6316D01*
X8830Y6273D01*
X8822Y6242D01*
Y6223D01*
Y6219D01*
Y6215D01*
X8830Y6137D01*
X8850Y6071D01*
X8873Y6016D01*
X8904Y5973D01*
X8935Y5938D01*
X8959Y5911D01*
X8978Y5895D01*
X8986Y5891D01*
X9048Y5856D01*
X9111Y5833D01*
X9169Y5813D01*
X9224Y5802D01*
X9275Y5794D01*
X9310Y5790D01*
X9360D01*
X9376Y5794D01*
X9396D01*
X9431Y5517D01*
X9384Y5528D01*
X9341Y5536D01*
X9302Y5540D01*
X9271Y5544D01*
X9244Y5548D01*
X9208D01*
X9130Y5540D01*
X9064Y5525D01*
X9002Y5505D01*
X8951Y5478D01*
X8908Y5451D01*
X8877Y5431D01*
X8861Y5415D01*
X8854Y5408D01*
X8807Y5353D01*
X8772Y5294D01*
X8744Y5232D01*
X8729Y5178D01*
X8717Y5127D01*
X8713Y5088D01*
X8709Y5072D01*
Y5060D01*
Y5057D01*
Y5053D01*
X8717Y4971D01*
X8733Y4897D01*
X8756Y4830D01*
X8783Y4776D01*
X8815Y4729D01*
X8838Y4698D01*
X8854Y4678D01*
X8861Y4671D01*
X8920Y4620D01*
X8982Y4581D01*
X9045Y4557D01*
X9107Y4538D01*
X9158Y4526D01*
X9197Y4522D01*
X9212Y4518D01*
X9236D01*
X9302Y4522D01*
X9364Y4538D01*
X9419Y4557D01*
X9462Y4577D01*
X9501Y4600D01*
X9528Y4616D01*
X9544Y4631D01*
X9552Y4635D01*
X9595Y4686D01*
X9634Y4745D01*
X9665Y4811D01*
X9688Y4873D01*
X9708Y4932D01*
X9719Y4979D01*
X9727Y4994D01*
Y5010D01*
X9731Y5018D01*
Y5021D01*
X10047Y4979D01*
X10039Y4920D01*
X10027Y4865D01*
X9992Y4764D01*
X9953Y4674D01*
X9906Y4596D01*
X9887Y4565D01*
X9864Y4538D01*
X9844Y4515D01*
X9828Y4491D01*
X9813Y4476D01*
X9801Y4464D01*
X9797Y4460D01*
X9793Y4456D01*
X9751Y4421D01*
X9704Y4390D01*
X9661Y4362D01*
X9614Y4343D01*
X9520Y4304D01*
X9431Y4281D01*
X9392Y4273D01*
X9353Y4269D01*
X9322Y4265D01*
X9290Y4261D01*
X9267Y4257D01*
X9236D01*
X9169Y4261D01*
X9103Y4269D01*
X9041Y4277D01*
X8982Y4292D01*
X8928Y4312D01*
X8877Y4331D01*
X8830Y4351D01*
X8787Y4374D01*
X8752Y4394D01*
X8717Y4413D01*
X8686Y4433D01*
X8662Y4452D01*
X8643Y4468D01*
X8631Y4476D01*
X8623Y4483D01*
X8619Y4487D01*
X8577Y4534D01*
X8538Y4581D01*
X8506Y4628D01*
X8479Y4674D01*
X8452Y4721D01*
X8432Y4772D01*
X8405Y4862D01*
X8393Y4901D01*
X8386Y4940D01*
X8382Y4971D01*
X8378Y5002D01*
X8374Y5025D01*
Y5041D01*
Y5053D01*
Y5057D01*
X8378Y5146D01*
X8393Y5228D01*
X8413Y5298D01*
X8436Y5357D01*
X8463Y5404D01*
X8483Y5439D01*
X8499Y5462D01*
X8502Y5470D01*
X8553Y5528D01*
X8612Y5575D01*
X8670Y5614D01*
X8725Y5642D01*
X8776Y5665D01*
X8815Y5677D01*
X8830Y5684D01*
X8842D01*
X8850Y5688D01*
X8854D01*
X8791Y5720D01*
X8737Y5759D01*
X8694Y5794D01*
X8655Y5829D01*
X8627Y5860D01*
X8604Y5883D01*
X8592Y5899D01*
X8588Y5907D01*
X8557Y5957D01*
X8538Y6012D01*
X8522Y6063D01*
X8510Y6110D01*
X8502Y6149D01*
X8499Y6180D01*
Y6199D01*
Y6207D01*
X8502Y6273D01*
X8514Y6332D01*
X8530Y6386D01*
X8545Y6437D01*
X8561Y6476D01*
X8577Y6507D01*
X8588Y6527D01*
X8592Y6535D01*
X8631Y6589D01*
X8674Y6640D01*
X8721Y6683D01*
X8764Y6718D01*
X8803Y6745D01*
X8834Y6765D01*
X8857Y6776D01*
X8861Y6780D01*
X8865D01*
X8931Y6812D01*
X8998Y6835D01*
X9064Y6851D01*
X9123Y6862D01*
X9173Y6870D01*
X9212Y6874D01*
X9302D01*
X9357Y6866D01*
D02*
G37*
G36*
X12500Y4300D02*
X12161D01*
Y5439D01*
X11724D01*
X11685Y5435D01*
X11654D01*
X11626Y5431D01*
X11607Y5427D01*
X11591D01*
X11584Y5423D01*
X11580D01*
X11521Y5404D01*
X11474Y5380D01*
X11455Y5369D01*
X11439Y5361D01*
X11431Y5357D01*
X11428Y5353D01*
X11396Y5333D01*
X11369Y5306D01*
X11310Y5252D01*
X11291Y5224D01*
X11271Y5201D01*
X11260Y5185D01*
X11256Y5181D01*
X11217Y5131D01*
X11178Y5076D01*
X11135Y5018D01*
X11096Y4959D01*
X11061Y4908D01*
X11034Y4869D01*
X11026Y4854D01*
X11018Y4842D01*
X11010Y4834D01*
Y4830D01*
X10671Y4300D01*
X10246D01*
X10690Y4994D01*
X10741Y5068D01*
X10792Y5135D01*
X10839Y5193D01*
X10881Y5244D01*
X10917Y5283D01*
X10944Y5314D01*
X10963Y5330D01*
X10971Y5337D01*
X10999Y5361D01*
X11034Y5384D01*
X11100Y5427D01*
X11127Y5443D01*
X11151Y5454D01*
X11166Y5462D01*
X11174Y5466D01*
X11108Y5478D01*
X11045Y5489D01*
X10987Y5505D01*
X10936Y5525D01*
X10885Y5544D01*
X10842Y5564D01*
X10800Y5583D01*
X10764Y5603D01*
X10733Y5622D01*
X10706Y5638D01*
X10683Y5657D01*
X10663Y5669D01*
X10651Y5684D01*
X10640Y5692D01*
X10632Y5700D01*
X10601Y5735D01*
X10573Y5774D01*
X10527Y5852D01*
X10495Y5926D01*
X10476Y6000D01*
X10460Y6063D01*
X10456Y6090D01*
Y6114D01*
X10452Y6133D01*
Y6149D01*
Y6156D01*
Y6160D01*
X10456Y6238D01*
X10468Y6308D01*
X10488Y6375D01*
X10507Y6433D01*
X10527Y6480D01*
X10546Y6515D01*
X10558Y6539D01*
X10562Y6546D01*
X10605Y6609D01*
X10651Y6660D01*
X10698Y6702D01*
X10745Y6734D01*
X10784Y6761D01*
X10815Y6780D01*
X10839Y6788D01*
X10842Y6792D01*
X10846D01*
X10881Y6804D01*
X10921Y6815D01*
X11002Y6831D01*
X11088Y6847D01*
X11170Y6854D01*
X11248Y6858D01*
X11279D01*
X11310Y6862D01*
X12500D01*
Y4300D01*
D02*
G37*
G36*
X35971Y7270D02*
X36033Y7266D01*
X36150Y7243D01*
X36201Y7231D01*
X36252Y7215D01*
X36294Y7196D01*
X36334Y7180D01*
X36369Y7161D01*
X36400Y7145D01*
X36427Y7126D01*
X36450Y7114D01*
X36466Y7102D01*
X36478Y7091D01*
X36486Y7087D01*
X36489Y7083D01*
X36529Y7044D01*
X36560Y7005D01*
X36618Y6915D01*
X36661Y6825D01*
X36692Y6736D01*
X36716Y6658D01*
X36720Y6623D01*
X36727Y6592D01*
X36731Y6568D01*
X36735Y6549D01*
Y6537D01*
Y6533D01*
X36411Y6498D01*
X36404Y6584D01*
X36388Y6658D01*
X36369Y6720D01*
X36341Y6775D01*
X36318Y6818D01*
X36294Y6849D01*
X36279Y6865D01*
X36275Y6872D01*
X36220Y6919D01*
X36162Y6954D01*
X36099Y6978D01*
X36041Y6997D01*
X35990Y7005D01*
X35951Y7009D01*
X35936Y7013D01*
X35912D01*
X35834Y7009D01*
X35764Y6993D01*
X35706Y6974D01*
X35655Y6950D01*
X35616Y6923D01*
X35585Y6904D01*
X35569Y6888D01*
X35561Y6884D01*
X35515Y6833D01*
X35483Y6779D01*
X35460Y6728D01*
X35440Y6677D01*
X35433Y6634D01*
X35429Y6599D01*
X35425Y6576D01*
Y6572D01*
Y6568D01*
X35433Y6502D01*
X35448Y6432D01*
X35472Y6369D01*
X35499Y6311D01*
X35526Y6260D01*
X35550Y6221D01*
X35557Y6205D01*
X35565Y6194D01*
X35573Y6190D01*
Y6186D01*
X35604Y6147D01*
X35639Y6104D01*
X35678Y6061D01*
X35725Y6018D01*
X35819Y5928D01*
X35912Y5839D01*
X35998Y5765D01*
X36037Y5730D01*
X36072Y5702D01*
X36099Y5675D01*
X36119Y5659D01*
X36135Y5648D01*
X36138Y5644D01*
X36232Y5562D01*
X36318Y5488D01*
X36388Y5421D01*
X36447Y5367D01*
X36493Y5320D01*
X36525Y5285D01*
X36544Y5262D01*
X36552Y5258D01*
Y5254D01*
X36603Y5191D01*
X36642Y5133D01*
X36681Y5074D01*
X36708Y5024D01*
X36731Y4977D01*
X36747Y4946D01*
X36755Y4922D01*
X36759Y4918D01*
Y4914D01*
X36770Y4876D01*
X36782Y4837D01*
X36786Y4801D01*
X36790Y4770D01*
X36794Y4743D01*
Y4719D01*
Y4704D01*
Y4700D01*
X35097D01*
Y5000D01*
X36357D01*
X36314Y5063D01*
X36271Y5113D01*
X36252Y5137D01*
X36236Y5152D01*
X36228Y5164D01*
X36224Y5168D01*
X36205Y5187D01*
X36185Y5207D01*
X36135Y5254D01*
X36072Y5308D01*
X36014Y5363D01*
X35955Y5414D01*
X35908Y5453D01*
X35889Y5468D01*
X35873Y5480D01*
X35866Y5488D01*
X35862Y5492D01*
X35799Y5546D01*
X35745Y5593D01*
X35690Y5640D01*
X35643Y5683D01*
X35600Y5726D01*
X35561Y5761D01*
X35522Y5796D01*
X35491Y5827D01*
X35464Y5854D01*
X35440Y5878D01*
X35405Y5913D01*
X35386Y5936D01*
X35378Y5944D01*
X35327Y6007D01*
X35280Y6061D01*
X35245Y6116D01*
X35218Y6163D01*
X35195Y6202D01*
X35179Y6229D01*
X35171Y6248D01*
X35167Y6256D01*
X35144Y6311D01*
X35128Y6365D01*
X35117Y6416D01*
X35109Y6463D01*
X35105Y6502D01*
X35101Y6533D01*
Y6553D01*
Y6560D01*
X35105Y6615D01*
X35109Y6669D01*
X35136Y6767D01*
X35171Y6853D01*
X35210Y6927D01*
X35249Y6985D01*
X35269Y7009D01*
X35284Y7032D01*
X35300Y7048D01*
X35312Y7060D01*
X35316Y7063D01*
X35320Y7067D01*
X35362Y7102D01*
X35405Y7137D01*
X35452Y7165D01*
X35503Y7188D01*
X35600Y7223D01*
X35694Y7247D01*
X35737Y7258D01*
X35776Y7262D01*
X35811Y7266D01*
X35842Y7270D01*
X35869Y7274D01*
X35904D01*
X35971Y7270D01*
D02*
G37*
G36*
X39200Y4700D02*
X38861D01*
Y5839D01*
X38424D01*
X38385Y5835D01*
X38354D01*
X38326Y5831D01*
X38307Y5827D01*
X38291D01*
X38284Y5823D01*
X38280D01*
X38221Y5804D01*
X38174Y5780D01*
X38155Y5769D01*
X38139Y5761D01*
X38131Y5757D01*
X38127Y5753D01*
X38096Y5734D01*
X38069Y5706D01*
X38010Y5652D01*
X37991Y5624D01*
X37971Y5601D01*
X37960Y5585D01*
X37956Y5581D01*
X37917Y5531D01*
X37878Y5476D01*
X37835Y5418D01*
X37796Y5359D01*
X37761Y5308D01*
X37734Y5269D01*
X37726Y5254D01*
X37718Y5242D01*
X37710Y5234D01*
Y5230D01*
X37371Y4700D01*
X36946D01*
X37390Y5394D01*
X37441Y5468D01*
X37492Y5535D01*
X37539Y5593D01*
X37582Y5644D01*
X37617Y5683D01*
X37644Y5714D01*
X37663Y5730D01*
X37671Y5737D01*
X37699Y5761D01*
X37734Y5784D01*
X37800Y5827D01*
X37827Y5843D01*
X37851Y5854D01*
X37866Y5862D01*
X37874Y5866D01*
X37808Y5878D01*
X37745Y5889D01*
X37687Y5905D01*
X37636Y5925D01*
X37585Y5944D01*
X37543Y5964D01*
X37500Y5983D01*
X37464Y6003D01*
X37433Y6022D01*
X37406Y6038D01*
X37383Y6057D01*
X37363Y6069D01*
X37351Y6084D01*
X37340Y6092D01*
X37332Y6100D01*
X37301Y6135D01*
X37273Y6174D01*
X37227Y6252D01*
X37195Y6326D01*
X37176Y6400D01*
X37160Y6463D01*
X37156Y6490D01*
Y6514D01*
X37152Y6533D01*
Y6549D01*
Y6556D01*
Y6560D01*
X37156Y6638D01*
X37168Y6708D01*
X37188Y6775D01*
X37207Y6833D01*
X37227Y6880D01*
X37246Y6915D01*
X37258Y6939D01*
X37262Y6946D01*
X37305Y7009D01*
X37351Y7060D01*
X37398Y7102D01*
X37445Y7134D01*
X37484Y7161D01*
X37515Y7180D01*
X37539Y7188D01*
X37543Y7192D01*
X37546D01*
X37582Y7204D01*
X37620Y7215D01*
X37702Y7231D01*
X37788Y7247D01*
X37870Y7254D01*
X37948Y7258D01*
X37979D01*
X38010Y7262D01*
X39200D01*
Y4700D01*
D02*
G37*
G36*
X29406Y58612D02*
X29449Y58549D01*
X29495Y58491D01*
X29542Y58436D01*
X29585Y58393D01*
X29620Y58358D01*
X29643Y58335D01*
X29647Y58331D01*
X29651Y58327D01*
X29725Y58264D01*
X29803Y58206D01*
X29881Y58155D01*
X29952Y58112D01*
X30014Y58077D01*
X30041Y58066D01*
X30065Y58054D01*
X30080Y58042D01*
X30096Y58034D01*
X30104Y58030D01*
X30108D01*
Y57722D01*
X30053Y57746D01*
X29994Y57773D01*
X29940Y57797D01*
X29889Y57824D01*
X29846Y57847D01*
X29811Y57867D01*
X29788Y57882D01*
X29784Y57886D01*
X29780D01*
X29714Y57925D01*
X29655Y57968D01*
X29605Y58003D01*
X29562Y58038D01*
X29526Y58066D01*
X29499Y58085D01*
X29484Y58101D01*
X29480Y58105D01*
Y56100D01*
X29164D01*
Y58674D01*
X29370D01*
X29406Y58612D01*
D02*
G37*
G36*
X31820Y58697D02*
X31937Y58682D01*
X32042Y58654D01*
X32089Y58643D01*
X32132Y58627D01*
X32171Y58612D01*
X32210Y58600D01*
X32241Y58584D01*
X32264Y58573D01*
X32288Y58565D01*
X32303Y58557D01*
X32311Y58549D01*
X32315D01*
X32412Y58487D01*
X32502Y58413D01*
X32576Y58339D01*
X32635Y58264D01*
X32686Y58198D01*
X32705Y58171D01*
X32721Y58148D01*
X32732Y58124D01*
X32740Y58109D01*
X32748Y58101D01*
Y58097D01*
X32799Y57984D01*
X32838Y57863D01*
X32861Y57746D01*
X32880Y57637D01*
X32888Y57586D01*
X32892Y57543D01*
X32896Y57500D01*
Y57465D01*
X32900Y57438D01*
Y57418D01*
Y57403D01*
Y57399D01*
X32896Y57262D01*
X32880Y57137D01*
X32857Y57020D01*
X32845Y56966D01*
X32834Y56919D01*
X32822Y56872D01*
X32810Y56833D01*
X32799Y56798D01*
X32787Y56767D01*
X32779Y56744D01*
X32771Y56728D01*
X32767Y56716D01*
Y56712D01*
X32713Y56599D01*
X32647Y56502D01*
X32584Y56416D01*
X32518Y56350D01*
X32463Y56295D01*
X32416Y56256D01*
X32397Y56244D01*
X32385Y56233D01*
X32377Y56229D01*
X32373Y56225D01*
X32323Y56194D01*
X32268Y56170D01*
X32159Y56127D01*
X32046Y56100D01*
X31937Y56077D01*
X31890Y56073D01*
X31843Y56065D01*
X31804Y56061D01*
X31769D01*
X31738Y56057D01*
X31699D01*
X31625Y56061D01*
X31554Y56065D01*
X31426Y56092D01*
X31367Y56108D01*
X31309Y56127D01*
X31258Y56147D01*
X31211Y56166D01*
X31168Y56186D01*
X31133Y56205D01*
X31102Y56225D01*
X31075Y56240D01*
X31051Y56256D01*
X31036Y56268D01*
X31028Y56272D01*
X31024Y56275D01*
X30973Y56318D01*
X30927Y56365D01*
X30849Y56467D01*
X30778Y56572D01*
X30728Y56677D01*
X30704Y56724D01*
X30689Y56767D01*
X30673Y56810D01*
X30658Y56841D01*
X30650Y56872D01*
X30642Y56892D01*
X30638Y56907D01*
Y56911D01*
X30977Y56997D01*
X31008Y56884D01*
X31047Y56783D01*
X31094Y56701D01*
X31137Y56630D01*
X31180Y56580D01*
X31215Y56541D01*
X31239Y56517D01*
X31242Y56513D01*
X31246Y56510D01*
X31324Y56455D01*
X31402Y56416D01*
X31484Y56385D01*
X31558Y56365D01*
X31625Y56353D01*
X31656Y56350D01*
X31679D01*
X31699Y56346D01*
X31726D01*
X31812Y56350D01*
X31894Y56365D01*
X31968Y56385D01*
X32030Y56404D01*
X32085Y56428D01*
X32128Y56443D01*
X32143Y56451D01*
X32155Y56459D01*
X32159Y56463D01*
X32163D01*
X32233Y56513D01*
X32292Y56572D01*
X32342Y56630D01*
X32385Y56693D01*
X32416Y56744D01*
X32436Y56790D01*
X32444Y56806D01*
X32452Y56818D01*
X32455Y56825D01*
Y56829D01*
X32487Y56923D01*
X32510Y57020D01*
X32526Y57118D01*
X32537Y57208D01*
X32541Y57247D01*
X32545Y57282D01*
Y57317D01*
X32549Y57344D01*
Y57367D01*
Y57383D01*
Y57395D01*
Y57399D01*
X32545Y57492D01*
X32537Y57582D01*
X32526Y57664D01*
X32510Y57738D01*
X32494Y57800D01*
X32491Y57828D01*
X32483Y57847D01*
X32479Y57867D01*
X32475Y57878D01*
X32471Y57886D01*
Y57890D01*
X32436Y57976D01*
X32393Y58054D01*
X32346Y58116D01*
X32303Y58171D01*
X32260Y58214D01*
X32225Y58245D01*
X32202Y58264D01*
X32198Y58272D01*
X32194D01*
X32116Y58319D01*
X32034Y58354D01*
X31952Y58381D01*
X31874Y58397D01*
X31804Y58409D01*
X31777Y58413D01*
X31749D01*
X31730Y58417D01*
X31703D01*
X31609Y58413D01*
X31527Y58397D01*
X31453Y58378D01*
X31395Y58354D01*
X31344Y58327D01*
X31309Y58307D01*
X31285Y58292D01*
X31278Y58288D01*
X31215Y58233D01*
X31165Y58171D01*
X31118Y58101D01*
X31083Y58034D01*
X31055Y57976D01*
X31044Y57949D01*
X31032Y57925D01*
X31024Y57906D01*
X31020Y57890D01*
X31016Y57882D01*
Y57878D01*
X30681Y57956D01*
X30728Y58081D01*
X30755Y58140D01*
X30782Y58190D01*
X30814Y58241D01*
X30845Y58288D01*
X30872Y58327D01*
X30903Y58366D01*
X30931Y58397D01*
X30958Y58424D01*
X30985Y58452D01*
X31005Y58471D01*
X31024Y58487D01*
X31036Y58499D01*
X31044Y58502D01*
X31047Y58506D01*
X31098Y58541D01*
X31149Y58573D01*
X31203Y58600D01*
X31258Y58623D01*
X31367Y58658D01*
X31469Y58682D01*
X31515Y58690D01*
X31558Y58693D01*
X31597Y58697D01*
X31629Y58701D01*
X31656Y58705D01*
X31695D01*
X31820Y58697D01*
D02*
G37*
%LPC*%
G36*
X12161Y6578D02*
X11353D01*
X11252Y6574D01*
X11166Y6558D01*
X11096Y6543D01*
X11038Y6519D01*
X10995Y6500D01*
X10960Y6480D01*
X10944Y6464D01*
X10936Y6461D01*
X10893Y6414D01*
X10858Y6363D01*
X10835Y6312D01*
X10819Y6266D01*
X10811Y6223D01*
X10803Y6191D01*
Y6168D01*
Y6164D01*
Y6160D01*
X10807Y6114D01*
X10815Y6071D01*
X10827Y6032D01*
X10839Y6000D01*
X10850Y5969D01*
X10862Y5950D01*
X10870Y5934D01*
X10874Y5930D01*
X10901Y5895D01*
X10932Y5864D01*
X10967Y5837D01*
X10999Y5813D01*
X11026Y5798D01*
X11049Y5786D01*
X11065Y5782D01*
X11073Y5778D01*
X11123Y5762D01*
X11182Y5751D01*
X11244Y5743D01*
X11303Y5739D01*
X11353Y5735D01*
X11396Y5731D01*
X12161D01*
Y6578D01*
D02*
G37*
G36*
X38861Y6978D02*
X38053D01*
X37952Y6974D01*
X37866Y6958D01*
X37796Y6943D01*
X37738Y6919D01*
X37695Y6900D01*
X37659Y6880D01*
X37644Y6865D01*
X37636Y6861D01*
X37593Y6814D01*
X37558Y6763D01*
X37535Y6712D01*
X37519Y6666D01*
X37511Y6623D01*
X37503Y6592D01*
Y6568D01*
Y6564D01*
Y6560D01*
X37507Y6514D01*
X37515Y6471D01*
X37527Y6432D01*
X37539Y6400D01*
X37550Y6369D01*
X37562Y6350D01*
X37570Y6334D01*
X37574Y6330D01*
X37601Y6295D01*
X37632Y6264D01*
X37667Y6237D01*
X37699Y6213D01*
X37726Y6198D01*
X37749Y6186D01*
X37765Y6182D01*
X37773Y6178D01*
X37823Y6163D01*
X37882Y6151D01*
X37944Y6143D01*
X38003Y6139D01*
X38053Y6135D01*
X38096Y6131D01*
X38861D01*
Y6978D01*
D02*
G37*
%LPD*%
D10*
X34939Y23543D02*
G03*
X34939Y23543I-492J0D01*
G01*
D12*
X12970Y28858D02*
Y44606D01*
X34230Y32795D02*
Y40669D01*
X12970Y44606D02*
X34230D01*
X12970Y28858D02*
X34230D01*
Y32795D01*
Y40669D02*
Y44606D01*
D38*
X31474Y32795D02*
G03*
X31474Y32795I-1181J0D01*
G01*
M02*
