G04*
G04 #@! TF.GenerationSoftware,Altium Limited,Altium Designer,18.0.12 (696)*
G04*
G04 Layer_Physical_Order=4*
G04 Layer_Color=16711680*
%FSLAX25Y25*%
%MOIN*%
G70*
G01*
G75*
%ADD27C,0.06102*%
%ADD28R,0.06102X0.06102*%
%ADD30C,0.01000*%
%ADD31C,0.01000*%
%ADD32O,0.02362X0.05000*%
%ADD33R,0.04134X0.03937*%
%ADD34R,0.03543X0.04134*%
G36*
X47600Y100D02*
X47559Y-0D01*
X23996D01*
X23600Y396D01*
Y3533D01*
X28486D01*
X28814Y3533D01*
X29314Y3533D01*
X34129D01*
Y9267D01*
X32883D01*
Y9843D01*
X32782Y10350D01*
X32495Y10780D01*
X30937Y12337D01*
X30507Y12625D01*
X30000Y12725D01*
X29493Y12625D01*
X29063Y12337D01*
X28775Y11907D01*
X28675Y11400D01*
X28775Y10893D01*
X29063Y10463D01*
X29759Y9767D01*
X29551Y9267D01*
X28986Y9267D01*
X28486Y9267D01*
X27668D01*
Y22005D01*
X27966Y22451D01*
X28120Y23224D01*
Y25861D01*
X27966Y26634D01*
X27528Y27290D01*
X27302Y27441D01*
X27037Y27837D01*
X23600Y31275D01*
Y31972D01*
X24062Y32164D01*
X29377Y26849D01*
X29234Y26634D01*
X29080Y25861D01*
Y23224D01*
X29234Y22451D01*
X29672Y21795D01*
X30327Y21358D01*
X31100Y21204D01*
X31873Y21358D01*
X32528Y21795D01*
X32966Y22451D01*
X33120Y23224D01*
Y25861D01*
X32966Y26634D01*
X32528Y27290D01*
X32343Y27413D01*
X32325Y27507D01*
X32037Y27937D01*
X23907Y36068D01*
X23915Y36113D01*
X24458Y36277D01*
X34958Y25778D01*
Y22380D01*
X42660D01*
Y30083D01*
X34958D01*
Y30083D01*
X34565Y29920D01*
X23600Y40884D01*
Y41872D01*
X24062Y42064D01*
X30831Y35294D01*
X31261Y35007D01*
X31768Y34906D01*
X35189D01*
X35445Y34289D01*
X36062Y33485D01*
X36867Y32868D01*
X37803Y32480D01*
X38809Y32347D01*
X39814Y32480D01*
X40751Y32868D01*
X41555Y33485D01*
X42173Y34289D01*
X42561Y35226D01*
X42693Y36232D01*
X42561Y37237D01*
X42173Y38174D01*
X41555Y38978D01*
X40751Y39596D01*
X39814Y39984D01*
X38809Y40116D01*
X37803Y39984D01*
X36867Y39596D01*
X36062Y38978D01*
X35445Y38174D01*
X35189Y37557D01*
X32318D01*
X23600Y46275D01*
Y47452D01*
X24100Y47502D01*
X24234Y46829D01*
X24672Y46173D01*
X25063Y45912D01*
X25163Y45763D01*
X29363Y41563D01*
X29793Y41275D01*
X30300Y41175D01*
X35077D01*
X35584Y41275D01*
X36014Y41563D01*
X37187Y42735D01*
X37803Y42480D01*
X38809Y42347D01*
X39814Y42480D01*
X40751Y42868D01*
X41555Y43485D01*
X42173Y44289D01*
X42561Y45226D01*
X42693Y46232D01*
X42561Y47237D01*
X42173Y48174D01*
X41555Y48978D01*
X40751Y49596D01*
X39814Y49984D01*
X38809Y50116D01*
X37803Y49984D01*
X36867Y49596D01*
X36062Y48978D01*
X35445Y48174D01*
X35057Y47237D01*
X34924Y46232D01*
X35057Y45226D01*
X35312Y44609D01*
X34528Y43826D01*
X30849D01*
X27918Y46757D01*
X27966Y46829D01*
X28120Y47602D01*
Y50239D01*
X27966Y51012D01*
X27528Y51668D01*
X26873Y52106D01*
X26100Y52259D01*
X25327Y52106D01*
X24672Y51668D01*
X24234Y51012D01*
X24100Y50340D01*
X23600Y50389D01*
Y54263D01*
X24761D01*
Y57231D01*
Y60200D01*
X23600D01*
Y64100D01*
X23800Y64300D01*
X47600D01*
Y100D01*
D02*
G37*
G36*
X22400Y63900D02*
Y60200D01*
X19856D01*
Y57231D01*
Y54263D01*
X22400D01*
Y52284D01*
X21959Y52048D01*
X21873Y52106D01*
X21100Y52259D01*
X20327Y52106D01*
X19672Y51668D01*
X19234Y51012D01*
X19080Y50239D01*
Y47602D01*
X19234Y46829D01*
X19672Y46173D01*
X20327Y45736D01*
X20406Y45720D01*
X22400Y43725D01*
Y42738D01*
X21938Y42546D01*
X17842Y46643D01*
X17966Y46829D01*
X18120Y47602D01*
Y50239D01*
X17966Y51012D01*
X17528Y51668D01*
X16873Y52106D01*
X16100Y52259D01*
X15327Y52106D01*
X14672Y51668D01*
X14234Y51012D01*
X14080Y50239D01*
Y49641D01*
X13618Y49450D01*
X10694Y52374D01*
X10840Y52936D01*
X11555Y53485D01*
X12173Y54289D01*
X12561Y55226D01*
X12693Y56232D01*
X12561Y57237D01*
X12173Y58174D01*
X11555Y58978D01*
X10751Y59596D01*
X9814Y59984D01*
X8809Y60116D01*
X7803Y59984D01*
X6866Y59596D01*
X6062Y58978D01*
X5445Y58174D01*
X5057Y57237D01*
X4924Y56232D01*
X5057Y55226D01*
X5445Y54289D01*
X6062Y53485D01*
X6866Y52868D01*
X7483Y52612D01*
Y52385D01*
X7584Y51878D01*
X7871Y51448D01*
X8712Y50608D01*
X8533Y50080D01*
X7803Y49984D01*
X6866Y49596D01*
X6062Y48978D01*
X5445Y48174D01*
X5057Y47237D01*
X4924Y46232D01*
X5057Y45226D01*
X5445Y44289D01*
X6062Y43485D01*
X6866Y42868D01*
X7803Y42480D01*
X8774Y42352D01*
X11390Y39735D01*
X11060Y39358D01*
X10751Y39596D01*
X9814Y39984D01*
X8809Y40116D01*
X7803Y39984D01*
X6866Y39596D01*
X6062Y38978D01*
X5445Y38174D01*
X5057Y37237D01*
X4924Y36232D01*
X5057Y35226D01*
X5445Y34289D01*
X6062Y33485D01*
X6866Y32868D01*
X7803Y32480D01*
X8809Y32347D01*
X9814Y32480D01*
X10751Y32868D01*
X11555Y33485D01*
X12024Y34095D01*
X12627Y34199D01*
X19617Y27208D01*
X19234Y26634D01*
X19080Y25861D01*
Y23224D01*
X19234Y22451D01*
X19672Y21795D01*
X19774Y21727D01*
Y9621D01*
X19421Y9267D01*
X18586Y9267D01*
X17895Y9267D01*
X17703Y9729D01*
X18437Y10463D01*
X18725Y10893D01*
X18825Y11400D01*
X18725Y11907D01*
X18437Y12337D01*
X18007Y12625D01*
X17500Y12725D01*
X16993Y12625D01*
X16563Y12337D01*
X14905Y10680D01*
X14618Y10250D01*
X14517Y9743D01*
Y9267D01*
X13271D01*
Y3533D01*
X18086D01*
X18414Y3533D01*
X18914Y3533D01*
X22400D01*
Y100D01*
X0D01*
Y64400D01*
X22193D01*
X22400Y63900D01*
D02*
G37*
%LPC*%
G36*
X28328Y60200D02*
X25762D01*
Y57731D01*
X28328D01*
Y60200D01*
D02*
G37*
G36*
X39309Y60252D02*
Y56731D01*
X42829D01*
X42756Y57289D01*
X42347Y58275D01*
X41698Y59121D01*
X40852Y59770D01*
X39866Y60179D01*
X39309Y60252D01*
D02*
G37*
G36*
X38309Y60252D02*
X37751Y60179D01*
X36766Y59770D01*
X35919Y59121D01*
X35270Y58275D01*
X34862Y57289D01*
X34788Y56731D01*
X38309D01*
Y60252D01*
D02*
G37*
G36*
X28328Y56731D02*
X25762D01*
Y54263D01*
X28328D01*
Y56731D01*
D02*
G37*
G36*
X42829Y55731D02*
X39309D01*
Y52211D01*
X39866Y52285D01*
X40852Y52693D01*
X41698Y53342D01*
X42347Y54189D01*
X42756Y55174D01*
X42829Y55731D01*
D02*
G37*
G36*
X38309D02*
X34788D01*
X34862Y55174D01*
X35270Y54189D01*
X35919Y53342D01*
X36766Y52693D01*
X37751Y52285D01*
X38309Y52211D01*
Y55731D01*
D02*
G37*
G36*
X31600Y52364D02*
Y49421D01*
X33324D01*
Y50239D01*
X33155Y51091D01*
X32673Y51812D01*
X31951Y52294D01*
X31600Y52364D01*
D02*
G37*
G36*
X30600D02*
X30249Y52294D01*
X29528Y51812D01*
X29045Y51091D01*
X28876Y50239D01*
Y49421D01*
X30600D01*
Y52364D01*
D02*
G37*
G36*
X33324Y48421D02*
X31600D01*
Y45477D01*
X31951Y45547D01*
X32673Y46029D01*
X33155Y46751D01*
X33324Y47602D01*
Y48421D01*
D02*
G37*
G36*
X30600D02*
X28876D01*
Y47602D01*
X29045Y46751D01*
X29528Y46029D01*
X30249Y45547D01*
X30600Y45477D01*
Y48421D01*
D02*
G37*
G36*
X18856Y60200D02*
X16289D01*
Y57731D01*
X18856D01*
Y60200D01*
D02*
G37*
G36*
Y56731D02*
X16289D01*
Y54263D01*
X18856D01*
Y56731D01*
D02*
G37*
G36*
X12860Y30283D02*
X9309D01*
Y26732D01*
X12860D01*
Y30283D01*
D02*
G37*
G36*
X8309D02*
X4758D01*
Y26732D01*
X8309D01*
Y30283D01*
D02*
G37*
G36*
X16600Y27986D02*
Y25043D01*
X18324D01*
Y25861D01*
X18155Y26713D01*
X17673Y27434D01*
X16951Y27916D01*
X16600Y27986D01*
D02*
G37*
G36*
X15600D02*
X15249Y27916D01*
X14527Y27434D01*
X14045Y26713D01*
X13876Y25861D01*
Y25043D01*
X15600D01*
Y27986D01*
D02*
G37*
G36*
X12860Y25732D02*
X9309D01*
Y22180D01*
X12860D01*
Y25732D01*
D02*
G37*
G36*
X8309D02*
X4758D01*
Y22180D01*
X8309D01*
Y25732D01*
D02*
G37*
G36*
X18324Y24043D02*
X16600D01*
Y21099D01*
X16951Y21169D01*
X17673Y21651D01*
X18155Y22373D01*
X18324Y23224D01*
Y24043D01*
D02*
G37*
G36*
X15600D02*
X13876D01*
Y23224D01*
X14045Y22373D01*
X14527Y21651D01*
X15249Y21169D01*
X15600Y21099D01*
Y24043D01*
D02*
G37*
%LPD*%
D27*
X38809Y56232D02*
D03*
Y46232D02*
D03*
Y36232D02*
D03*
X8809D02*
D03*
Y46232D02*
D03*
Y56232D02*
D03*
D28*
X38809Y26232D02*
D03*
X8809D02*
D03*
D30*
X30000Y11400D02*
X31557Y9843D01*
Y6400D02*
Y9843D01*
X15843Y9743D02*
X17500Y11400D01*
X15843Y6400D02*
Y9743D01*
X31957Y7000D02*
X32000Y7043D01*
X21100Y7057D02*
Y24543D01*
Y7057D02*
X21157Y7000D01*
X26343D02*
Y24300D01*
X26100Y24543D02*
X26343Y24300D01*
X38809Y56232D02*
Y58991D01*
X36300Y61500D02*
X38809Y58991D01*
X29700Y61500D02*
X36300D01*
X25431Y57231D02*
X29700Y61500D01*
X25262Y57231D02*
X25431D01*
X31498Y48921D02*
X38809Y56232D01*
X31100Y48921D02*
X31498D01*
X35077Y42500D02*
X38809Y46232D01*
X30300Y42500D02*
X35077D01*
X26100Y46700D02*
X30300Y42500D01*
X26100Y46700D02*
Y48921D01*
X31768Y36232D02*
X38809D01*
X21100Y46900D02*
X31768Y36232D01*
X21100Y46900D02*
Y48921D01*
X31100Y24543D02*
Y27000D01*
X13160Y44940D02*
X31100Y27000D01*
X13160Y44940D02*
Y48034D01*
X36378Y26232D02*
X38809D01*
X16100Y46510D02*
X36378Y26232D01*
X16100Y46510D02*
Y48921D01*
X14687Y61900D02*
X19356Y57231D01*
X6200Y61900D02*
X14687D01*
X3400Y59100D02*
X6200Y61900D01*
X7468Y26232D02*
X8809D01*
X3400Y30300D02*
X7468Y26232D01*
X3400Y30300D02*
Y59100D01*
X8809Y52385D02*
X13160Y48034D01*
X8809Y52385D02*
Y56232D01*
X26100Y24543D02*
Y26900D01*
X8809Y44191D02*
X26100Y26900D01*
X8809Y44191D02*
Y46232D01*
X14411Y26232D02*
X16100Y24543D01*
X8809Y26232D02*
X14411D01*
X21100Y24543D02*
Y27600D01*
X12468Y36232D02*
X21100Y27600D01*
X8809Y36232D02*
X12468D01*
D31*
X30000Y11400D02*
D03*
X17500D02*
D03*
D32*
X16100Y48921D02*
D03*
X21100D02*
D03*
X26100D02*
D03*
X31100D02*
D03*
X16100Y24543D02*
D03*
X21100D02*
D03*
X26100D02*
D03*
X31100D02*
D03*
D33*
X19356Y57231D02*
D03*
X25262D02*
D03*
D34*
X21157Y6400D02*
D03*
X15843D02*
D03*
X26243D02*
D03*
X31557D02*
D03*
M02*
