G04*
G04 #@! TF.GenerationSoftware,Altium Limited,Altium Designer,18.0.12 (696)*
G04*
G04 Layer_Color=8388736*
%FSLAX25Y25*%
%MOIN*%
G70*
G01*
G75*
%ADD20R,0.04147X0.03556*%
%ADD21R,0.05524X0.08280*%
%ADD22R,0.07099X0.08280*%
%ADD23R,0.09068X0.08674*%
%ADD24R,0.02375X0.06115*%
%ADD25R,0.03800X0.03800*%
%ADD26R,0.03950X0.03950*%
%ADD27C,0.06102*%
%ADD28R,0.06102X0.06102*%
%ADD29C,0.01800*%
D20*
X17309Y49222D02*
D03*
Y44694D02*
D03*
X30800Y36678D02*
D03*
Y41206D02*
D03*
Y31121D02*
D03*
Y26594D02*
D03*
D21*
X20407Y6000D02*
D03*
X27100D02*
D03*
D22*
X7612D02*
D03*
X39895D02*
D03*
D23*
X11549Y15252D02*
D03*
X35958D02*
D03*
D24*
X18635Y16532D02*
D03*
X21194D02*
D03*
X23753D02*
D03*
X26313D02*
D03*
X28872D02*
D03*
D25*
X26124Y31200D02*
D03*
X16676D02*
D03*
X26124Y38700D02*
D03*
X16676D02*
D03*
D26*
X30553Y46300D02*
D03*
X24647D02*
D03*
D27*
X38809Y56232D02*
D03*
Y46232D02*
D03*
Y36232D02*
D03*
X8809D02*
D03*
Y46232D02*
D03*
Y56232D02*
D03*
D28*
X38809Y26232D02*
D03*
X8809D02*
D03*
D29*
X30000Y11400D02*
D03*
X17500D02*
D03*
M02*
