G04*
G04 #@! TF.GenerationSoftware,Altium Limited,Altium Designer,18.0.12 (696)*
G04*
G04 Layer_Color=65535*
%FSLAX25Y25*%
%MOIN*%
G70*
G01*
G75*
%ADD10C,0.00984*%
%ADD11C,0.00394*%
%ADD12C,0.00787*%
G36*
X29293Y49352D02*
X29611Y49044D01*
X29475D01*
X29100Y49418D01*
Y49044D01*
X29000D01*
Y49800D01*
X29100D01*
Y49538D01*
X29223Y49419D01*
X29492Y49800D01*
X29625D01*
X29293Y49352D01*
D02*
G37*
G36*
X24105Y49000D02*
X23992D01*
X23905Y49229D01*
X23587D01*
X23506Y49000D01*
X23400D01*
X23689Y49755D01*
X23798D01*
X24105Y49000D01*
D02*
G37*
G36*
X20025Y54223D02*
X19003D01*
X18863Y53533D01*
X18867Y53537D01*
X18874Y53540D01*
X18886Y53548D01*
X18902Y53560D01*
X18925Y53572D01*
X18948Y53583D01*
X19011Y53615D01*
X19081Y53646D01*
X19163Y53669D01*
X19253Y53689D01*
X19346Y53697D01*
X19377D01*
X19401Y53693D01*
X19432Y53689D01*
X19463Y53685D01*
X19502Y53677D01*
X19541Y53669D01*
X19631Y53638D01*
X19678Y53622D01*
X19725Y53599D01*
X19775Y53572D01*
X19822Y53540D01*
X19869Y53505D01*
X19912Y53462D01*
X19916Y53459D01*
X19923Y53451D01*
X19935Y53439D01*
X19947Y53420D01*
X19966Y53396D01*
X19986Y53369D01*
X20005Y53338D01*
X20029Y53303D01*
X20052Y53260D01*
X20072Y53217D01*
X20091Y53166D01*
X20111Y53115D01*
X20122Y53057D01*
X20134Y52998D01*
X20142Y52932D01*
X20146Y52866D01*
Y52862D01*
Y52850D01*
Y52831D01*
X20142Y52807D01*
X20138Y52776D01*
X20134Y52741D01*
X20130Y52702D01*
X20122Y52659D01*
X20095Y52565D01*
X20060Y52468D01*
X20037Y52413D01*
X20009Y52363D01*
X19978Y52312D01*
X19943Y52265D01*
X19939Y52261D01*
X19931Y52254D01*
X19916Y52238D01*
X19896Y52218D01*
X19873Y52195D01*
X19841Y52168D01*
X19806Y52140D01*
X19763Y52113D01*
X19721Y52082D01*
X19670Y52055D01*
X19611Y52027D01*
X19553Y52004D01*
X19487Y51984D01*
X19420Y51969D01*
X19346Y51961D01*
X19268Y51957D01*
X19233D01*
X19210Y51961D01*
X19182Y51965D01*
X19147Y51969D01*
X19108Y51973D01*
X19065Y51981D01*
X18976Y52004D01*
X18882Y52039D01*
X18835Y52062D01*
X18789Y52090D01*
X18742Y52117D01*
X18699Y52152D01*
X18695Y52156D01*
X18691Y52160D01*
X18679Y52172D01*
X18664Y52187D01*
X18648Y52207D01*
X18629Y52230D01*
X18609Y52257D01*
X18586Y52289D01*
X18543Y52363D01*
X18500Y52452D01*
X18469Y52554D01*
X18457Y52612D01*
X18449Y52671D01*
X18781Y52694D01*
Y52690D01*
Y52683D01*
X18785Y52671D01*
X18789Y52655D01*
X18800Y52612D01*
X18816Y52558D01*
X18835Y52499D01*
X18867Y52441D01*
X18902Y52382D01*
X18948Y52332D01*
X18956Y52328D01*
X18972Y52312D01*
X18999Y52296D01*
X19038Y52273D01*
X19085Y52254D01*
X19139Y52234D01*
X19202Y52218D01*
X19268Y52214D01*
X19292D01*
X19307Y52218D01*
X19350Y52222D01*
X19405Y52234D01*
X19463Y52257D01*
X19530Y52285D01*
X19592Y52328D01*
X19623Y52351D01*
X19654Y52382D01*
Y52386D01*
X19662Y52390D01*
X19678Y52413D01*
X19705Y52452D01*
X19732Y52503D01*
X19760Y52569D01*
X19787Y52647D01*
X19803Y52737D01*
X19810Y52838D01*
Y52842D01*
Y52850D01*
Y52866D01*
X19806Y52881D01*
Y52905D01*
X19803Y52932D01*
X19791Y52995D01*
X19775Y53061D01*
X19748Y53131D01*
X19709Y53201D01*
X19658Y53264D01*
X19650Y53271D01*
X19631Y53287D01*
X19600Y53314D01*
X19553Y53342D01*
X19498Y53369D01*
X19428Y53396D01*
X19350Y53412D01*
X19264Y53420D01*
X19237D01*
X19210Y53416D01*
X19171Y53412D01*
X19128Y53400D01*
X19081Y53388D01*
X19034Y53369D01*
X18987Y53346D01*
X18983Y53342D01*
X18968Y53334D01*
X18945Y53318D01*
X18917Y53299D01*
X18890Y53271D01*
X18859Y53240D01*
X18827Y53205D01*
X18800Y53166D01*
X18504Y53209D01*
X18753Y54523D01*
X20025D01*
Y54223D01*
D02*
G37*
G36*
X17221Y54558D02*
X17252D01*
X17330Y54554D01*
X17412Y54547D01*
X17498Y54531D01*
X17580Y54515D01*
X17618Y54504D01*
X17654Y54492D01*
X17658D01*
X17661Y54488D01*
X17685Y54480D01*
X17716Y54461D01*
X17755Y54434D01*
X17802Y54402D01*
X17849Y54360D01*
X17895Y54309D01*
X17938Y54246D01*
X17942Y54239D01*
X17954Y54215D01*
X17973Y54180D01*
X17993Y54133D01*
X18012Y54075D01*
X18032Y54009D01*
X18044Y53938D01*
X18047Y53860D01*
Y53856D01*
Y53849D01*
Y53833D01*
X18044Y53813D01*
Y53790D01*
X18040Y53763D01*
X18024Y53700D01*
X18005Y53626D01*
X17973Y53552D01*
X17927Y53474D01*
X17899Y53435D01*
X17868Y53400D01*
X17860Y53392D01*
X17849Y53385D01*
X17837Y53369D01*
X17817Y53357D01*
X17794Y53338D01*
X17767Y53322D01*
X17736Y53303D01*
X17700Y53283D01*
X17658Y53264D01*
X17615Y53244D01*
X17564Y53225D01*
X17513Y53205D01*
X17455Y53189D01*
X17392Y53178D01*
X17326Y53166D01*
X17334Y53162D01*
X17349Y53154D01*
X17373Y53143D01*
X17400Y53127D01*
X17466Y53084D01*
X17502Y53061D01*
X17529Y53037D01*
X17537Y53030D01*
X17556Y53014D01*
X17583Y52983D01*
X17618Y52944D01*
X17661Y52893D01*
X17708Y52835D01*
X17759Y52768D01*
X17810Y52694D01*
X18254Y52000D01*
X17829D01*
X17490Y52530D01*
Y52534D01*
X17482Y52542D01*
X17474Y52554D01*
X17466Y52569D01*
X17439Y52608D01*
X17404Y52659D01*
X17365Y52718D01*
X17322Y52776D01*
X17283Y52831D01*
X17244Y52881D01*
X17240Y52885D01*
X17229Y52901D01*
X17209Y52924D01*
X17189Y52952D01*
X17131Y53006D01*
X17104Y53034D01*
X17073Y53053D01*
X17069Y53057D01*
X17061Y53061D01*
X17045Y53069D01*
X17026Y53080D01*
X16979Y53104D01*
X16920Y53123D01*
X16917D01*
X16909Y53127D01*
X16893D01*
X16874Y53131D01*
X16846Y53135D01*
X16815D01*
X16776Y53139D01*
X16339D01*
Y52000D01*
X16000D01*
Y54562D01*
X17189D01*
X17221Y54558D01*
D02*
G37*
G36*
X19125Y60870D02*
X19176Y60862D01*
X19234Y60851D01*
X19301Y60835D01*
X19367Y60812D01*
X19433Y60780D01*
X19437D01*
X19441Y60777D01*
X19465Y60765D01*
X19496Y60745D01*
X19535Y60718D01*
X19578Y60683D01*
X19624Y60640D01*
X19667Y60589D01*
X19706Y60535D01*
X19710Y60527D01*
X19722Y60507D01*
X19738Y60476D01*
X19753Y60437D01*
X19769Y60387D01*
X19784Y60332D01*
X19796Y60273D01*
X19800Y60207D01*
Y60199D01*
Y60180D01*
X19796Y60149D01*
X19788Y60110D01*
X19777Y60063D01*
X19761Y60012D01*
X19741Y59957D01*
X19710Y59907D01*
X19706Y59899D01*
X19695Y59883D01*
X19671Y59860D01*
X19644Y59829D01*
X19605Y59794D01*
X19562Y59759D01*
X19508Y59720D01*
X19445Y59688D01*
X19449D01*
X19457Y59684D01*
X19468D01*
X19484Y59677D01*
X19523Y59665D01*
X19574Y59642D01*
X19628Y59614D01*
X19687Y59575D01*
X19745Y59528D01*
X19796Y59470D01*
X19800Y59462D01*
X19816Y59439D01*
X19835Y59404D01*
X19862Y59357D01*
X19886Y59298D01*
X19905Y59228D01*
X19921Y59146D01*
X19925Y59057D01*
Y59053D01*
Y59041D01*
Y59025D01*
X19921Y59002D01*
X19917Y58971D01*
X19913Y58940D01*
X19905Y58901D01*
X19894Y58862D01*
X19866Y58772D01*
X19847Y58721D01*
X19819Y58674D01*
X19792Y58628D01*
X19761Y58581D01*
X19722Y58534D01*
X19679Y58487D01*
X19675Y58483D01*
X19667Y58476D01*
X19656Y58468D01*
X19636Y58452D01*
X19613Y58433D01*
X19582Y58413D01*
X19546Y58394D01*
X19511Y58374D01*
X19468Y58351D01*
X19422Y58331D01*
X19371Y58312D01*
X19316Y58292D01*
X19258Y58277D01*
X19196Y58269D01*
X19129Y58261D01*
X19063Y58257D01*
X19032D01*
X19008Y58261D01*
X18977Y58265D01*
X18946Y58269D01*
X18907Y58273D01*
X18868Y58280D01*
X18778Y58304D01*
X18685Y58343D01*
X18638Y58362D01*
X18595Y58390D01*
X18548Y58421D01*
X18505Y58456D01*
X18501Y58460D01*
X18497Y58464D01*
X18486Y58476D01*
X18470Y58491D01*
X18454Y58514D01*
X18435Y58538D01*
X18412Y58565D01*
X18392Y58596D01*
X18345Y58674D01*
X18306Y58764D01*
X18271Y58865D01*
X18259Y58920D01*
X18252Y58979D01*
X18568Y59022D01*
Y59018D01*
X18572Y59010D01*
Y58994D01*
X18579Y58979D01*
X18591Y58932D01*
X18610Y58873D01*
X18634Y58811D01*
X18665Y58745D01*
X18704Y58686D01*
X18747Y58635D01*
X18755Y58631D01*
X18770Y58616D01*
X18798Y58600D01*
X18837Y58577D01*
X18880Y58557D01*
X18934Y58538D01*
X18997Y58522D01*
X19063Y58518D01*
X19086D01*
X19102Y58522D01*
X19141Y58526D01*
X19192Y58538D01*
X19254Y58557D01*
X19316Y58581D01*
X19379Y58620D01*
X19437Y58671D01*
X19445Y58678D01*
X19461Y58698D01*
X19484Y58729D01*
X19515Y58776D01*
X19543Y58830D01*
X19566Y58897D01*
X19582Y58971D01*
X19589Y59053D01*
Y59057D01*
Y59061D01*
Y59072D01*
X19586Y59088D01*
X19582Y59127D01*
X19570Y59178D01*
X19554Y59232D01*
X19527Y59294D01*
X19492Y59353D01*
X19445Y59408D01*
X19437Y59415D01*
X19422Y59431D01*
X19390Y59451D01*
X19348Y59478D01*
X19297Y59505D01*
X19234Y59525D01*
X19168Y59540D01*
X19090Y59548D01*
X19055D01*
X19028Y59544D01*
X18997Y59540D01*
X18958Y59536D01*
X18915Y59528D01*
X18868Y59517D01*
X18903Y59794D01*
X18923D01*
X18938Y59790D01*
X18989D01*
X19024Y59794D01*
X19075Y59802D01*
X19129Y59813D01*
X19188Y59833D01*
X19250Y59856D01*
X19312Y59891D01*
X19320Y59895D01*
X19340Y59911D01*
X19363Y59938D01*
X19394Y59973D01*
X19426Y60016D01*
X19449Y60071D01*
X19468Y60137D01*
X19476Y60215D01*
Y60219D01*
Y60223D01*
Y60242D01*
X19468Y60273D01*
X19461Y60316D01*
X19449Y60359D01*
X19426Y60406D01*
X19398Y60457D01*
X19359Y60500D01*
X19355Y60504D01*
X19340Y60519D01*
X19312Y60539D01*
X19277Y60558D01*
X19234Y60581D01*
X19184Y60597D01*
X19125Y60613D01*
X19059Y60617D01*
X19028D01*
X18993Y60609D01*
X18954Y60601D01*
X18903Y60589D01*
X18852Y60566D01*
X18802Y60539D01*
X18751Y60500D01*
X18747Y60496D01*
X18731Y60480D01*
X18712Y60453D01*
X18688Y60414D01*
X18661Y60367D01*
X18638Y60308D01*
X18614Y60238D01*
X18599Y60156D01*
X18283Y60211D01*
Y60215D01*
X18287Y60227D01*
X18291Y60242D01*
X18295Y60262D01*
X18302Y60289D01*
X18310Y60320D01*
X18338Y60390D01*
X18369Y60468D01*
X18416Y60550D01*
X18470Y60628D01*
X18540Y60698D01*
X18544Y60702D01*
X18548Y60706D01*
X18560Y60714D01*
X18579Y60726D01*
X18599Y60738D01*
X18622Y60753D01*
X18681Y60788D01*
X18755Y60819D01*
X18845Y60847D01*
X18942Y60866D01*
X18997Y60874D01*
X19086D01*
X19125Y60870D01*
D02*
G37*
G36*
X17823Y59115D02*
Y59111D01*
Y59100D01*
Y59084D01*
Y59061D01*
X17819Y59033D01*
Y59002D01*
X17815Y58932D01*
X17803Y58850D01*
X17792Y58768D01*
X17772Y58686D01*
X17745Y58616D01*
X17741Y58608D01*
X17729Y58589D01*
X17710Y58557D01*
X17686Y58518D01*
X17651Y58472D01*
X17608Y58429D01*
X17554Y58386D01*
X17495Y58347D01*
X17487Y58343D01*
X17464Y58331D01*
X17429Y58319D01*
X17382Y58304D01*
X17323Y58284D01*
X17257Y58273D01*
X17179Y58261D01*
X17097Y58257D01*
X17066D01*
X17043Y58261D01*
X17015Y58265D01*
X16980Y58269D01*
X16906Y58280D01*
X16824Y58304D01*
X16738Y58339D01*
X16696Y58359D01*
X16657Y58386D01*
X16618Y58413D01*
X16582Y58448D01*
Y58452D01*
X16575Y58456D01*
X16567Y58468D01*
X16555Y58483D01*
X16540Y58507D01*
X16528Y58530D01*
X16508Y58561D01*
X16493Y58592D01*
X16477Y58631D01*
X16462Y58674D01*
X16446Y58721D01*
X16434Y58776D01*
X16423Y58830D01*
X16415Y58893D01*
X16411Y58955D01*
Y59025D01*
X16715Y59068D01*
Y59064D01*
Y59057D01*
Y59041D01*
X16719Y59022D01*
Y58998D01*
X16723Y58971D01*
X16735Y58908D01*
X16746Y58838D01*
X16766Y58772D01*
X16793Y58713D01*
X16809Y58686D01*
X16824Y58663D01*
X16828Y58659D01*
X16844Y58647D01*
X16863Y58628D01*
X16894Y58612D01*
X16933Y58592D01*
X16980Y58573D01*
X17035Y58561D01*
X17097Y58557D01*
X17121D01*
X17144Y58561D01*
X17171Y58565D01*
X17207Y58573D01*
X17245Y58581D01*
X17281Y58596D01*
X17316Y58616D01*
X17320Y58620D01*
X17331Y58628D01*
X17347Y58639D01*
X17366Y58659D01*
X17390Y58678D01*
X17409Y58706D01*
X17429Y58737D01*
X17444Y58772D01*
Y58776D01*
X17452Y58791D01*
X17456Y58815D01*
X17464Y58850D01*
X17472Y58897D01*
X17476Y58951D01*
X17483Y59018D01*
Y59096D01*
Y60862D01*
X17823D01*
Y59115D01*
D02*
G37*
G36*
X29420Y58915D02*
Y58911D01*
Y58899D01*
Y58884D01*
Y58860D01*
X29416Y58833D01*
Y58802D01*
X29412Y58732D01*
X29400Y58650D01*
X29388Y58568D01*
X29369Y58486D01*
X29342Y58416D01*
X29338Y58408D01*
X29326Y58389D01*
X29307Y58357D01*
X29283Y58318D01*
X29248Y58272D01*
X29205Y58229D01*
X29151Y58186D01*
X29092Y58147D01*
X29084Y58143D01*
X29061Y58131D01*
X29026Y58119D01*
X28979Y58104D01*
X28920Y58084D01*
X28854Y58073D01*
X28776Y58061D01*
X28694Y58057D01*
X28663D01*
X28640Y58061D01*
X28612Y58065D01*
X28577Y58069D01*
X28503Y58081D01*
X28421Y58104D01*
X28335Y58139D01*
X28293Y58158D01*
X28253Y58186D01*
X28214Y58213D01*
X28179Y58248D01*
Y58252D01*
X28172Y58256D01*
X28164Y58268D01*
X28152Y58283D01*
X28137Y58307D01*
X28125Y58330D01*
X28105Y58361D01*
X28090Y58393D01*
X28074Y58432D01*
X28058Y58474D01*
X28043Y58521D01*
X28031Y58576D01*
X28019Y58630D01*
X28012Y58693D01*
X28008Y58755D01*
Y58825D01*
X28312Y58868D01*
Y58864D01*
Y58857D01*
Y58841D01*
X28316Y58821D01*
Y58798D01*
X28320Y58771D01*
X28332Y58708D01*
X28343Y58638D01*
X28363Y58572D01*
X28390Y58513D01*
X28406Y58486D01*
X28421Y58463D01*
X28425Y58459D01*
X28441Y58447D01*
X28460Y58428D01*
X28491Y58412D01*
X28530Y58393D01*
X28577Y58373D01*
X28632Y58361D01*
X28694Y58357D01*
X28718D01*
X28741Y58361D01*
X28768Y58365D01*
X28803Y58373D01*
X28842Y58381D01*
X28877Y58396D01*
X28913Y58416D01*
X28916Y58420D01*
X28928Y58428D01*
X28944Y58439D01*
X28963Y58459D01*
X28987Y58478D01*
X29006Y58506D01*
X29026Y58537D01*
X29041Y58572D01*
Y58576D01*
X29049Y58591D01*
X29053Y58615D01*
X29061Y58650D01*
X29069Y58697D01*
X29072Y58751D01*
X29080Y58818D01*
Y58896D01*
Y60662D01*
X29420D01*
Y58915D01*
D02*
G37*
G36*
X30753Y60670D02*
X30785Y60666D01*
X30820Y60662D01*
X30859Y60658D01*
X30902Y60647D01*
X30995Y60623D01*
X31093Y60588D01*
X31143Y60565D01*
X31190Y60537D01*
X31233Y60502D01*
X31276Y60467D01*
X31280Y60463D01*
X31284Y60460D01*
X31295Y60448D01*
X31311Y60432D01*
X31327Y60409D01*
X31346Y60385D01*
X31385Y60327D01*
X31424Y60253D01*
X31459Y60167D01*
X31487Y60070D01*
X31490Y60015D01*
X31494Y59960D01*
Y59952D01*
Y59933D01*
X31490Y59902D01*
X31487Y59863D01*
X31479Y59816D01*
X31467Y59765D01*
X31451Y59711D01*
X31428Y59656D01*
X31424Y59648D01*
X31416Y59629D01*
X31401Y59601D01*
X31377Y59562D01*
X31350Y59516D01*
X31315Y59461D01*
X31268Y59407D01*
X31218Y59344D01*
X31210Y59336D01*
X31190Y59313D01*
X31155Y59278D01*
X31132Y59254D01*
X31104Y59227D01*
X31073Y59196D01*
X31034Y59161D01*
X30995Y59126D01*
X30952Y59083D01*
X30906Y59040D01*
X30851Y58993D01*
X30796Y58946D01*
X30734Y58892D01*
X30730Y58888D01*
X30722Y58880D01*
X30707Y58868D01*
X30687Y58853D01*
X30640Y58814D01*
X30582Y58763D01*
X30523Y58708D01*
X30461Y58654D01*
X30410Y58607D01*
X30391Y58587D01*
X30371Y58568D01*
X30367Y58564D01*
X30360Y58552D01*
X30344Y58537D01*
X30324Y58513D01*
X30281Y58463D01*
X30239Y58400D01*
X31498D01*
Y58100D01*
X29802D01*
Y58104D01*
Y58119D01*
Y58143D01*
X29806Y58170D01*
X29810Y58201D01*
X29814Y58236D01*
X29825Y58276D01*
X29837Y58315D01*
Y58318D01*
X29841Y58322D01*
X29849Y58346D01*
X29864Y58377D01*
X29888Y58424D01*
X29915Y58474D01*
X29954Y58533D01*
X29993Y58591D01*
X30044Y58654D01*
Y58658D01*
X30051Y58662D01*
X30071Y58685D01*
X30102Y58720D01*
X30149Y58767D01*
X30207Y58821D01*
X30278Y58888D01*
X30363Y58962D01*
X30457Y59044D01*
X30461Y59048D01*
X30476Y59059D01*
X30496Y59075D01*
X30523Y59102D01*
X30558Y59130D01*
X30597Y59165D01*
X30683Y59239D01*
X30777Y59329D01*
X30870Y59418D01*
X30917Y59461D01*
X30956Y59504D01*
X30991Y59547D01*
X31023Y59586D01*
Y59590D01*
X31030Y59594D01*
X31038Y59605D01*
X31046Y59621D01*
X31069Y59660D01*
X31097Y59711D01*
X31124Y59769D01*
X31147Y59832D01*
X31163Y59902D01*
X31171Y59968D01*
Y59972D01*
Y59976D01*
X31167Y59999D01*
X31163Y60034D01*
X31155Y60077D01*
X31136Y60128D01*
X31112Y60179D01*
X31081Y60233D01*
X31034Y60284D01*
X31026Y60288D01*
X31011Y60303D01*
X30980Y60323D01*
X30941Y60350D01*
X30890Y60374D01*
X30831Y60393D01*
X30761Y60409D01*
X30683Y60413D01*
X30660D01*
X30644Y60409D01*
X30605Y60405D01*
X30555Y60397D01*
X30496Y60378D01*
X30434Y60354D01*
X30375Y60319D01*
X30321Y60272D01*
X30317Y60264D01*
X30301Y60249D01*
X30278Y60218D01*
X30254Y60175D01*
X30227Y60120D01*
X30207Y60058D01*
X30192Y59984D01*
X30184Y59898D01*
X29860Y59933D01*
Y59937D01*
Y59949D01*
X29864Y59968D01*
X29868Y59992D01*
X29876Y60023D01*
X29880Y60058D01*
X29903Y60136D01*
X29934Y60225D01*
X29977Y60315D01*
X30036Y60405D01*
X30067Y60444D01*
X30106Y60483D01*
X30110Y60487D01*
X30118Y60491D01*
X30129Y60502D01*
X30145Y60514D01*
X30168Y60526D01*
X30196Y60545D01*
X30227Y60561D01*
X30262Y60580D01*
X30301Y60596D01*
X30344Y60615D01*
X30395Y60631D01*
X30445Y60643D01*
X30562Y60666D01*
X30625Y60670D01*
X30691Y60674D01*
X30726D01*
X30753Y60670D01*
D02*
G37*
G36*
X43420Y15215D02*
Y15211D01*
Y15200D01*
Y15184D01*
Y15160D01*
X43416Y15133D01*
Y15102D01*
X43412Y15032D01*
X43400Y14950D01*
X43388Y14868D01*
X43369Y14786D01*
X43342Y14716D01*
X43338Y14708D01*
X43326Y14689D01*
X43306Y14657D01*
X43283Y14618D01*
X43248Y14572D01*
X43205Y14529D01*
X43150Y14486D01*
X43092Y14447D01*
X43084Y14443D01*
X43061Y14431D01*
X43026Y14420D01*
X42979Y14404D01*
X42920Y14384D01*
X42854Y14373D01*
X42776Y14361D01*
X42694Y14357D01*
X42663D01*
X42640Y14361D01*
X42612Y14365D01*
X42577Y14369D01*
X42503Y14380D01*
X42421Y14404D01*
X42335Y14439D01*
X42292Y14458D01*
X42254Y14486D01*
X42215Y14513D01*
X42179Y14548D01*
Y14552D01*
X42172Y14556D01*
X42164Y14568D01*
X42152Y14583D01*
X42136Y14607D01*
X42125Y14630D01*
X42105Y14661D01*
X42090Y14693D01*
X42074Y14731D01*
X42059Y14774D01*
X42043Y14821D01*
X42031Y14876D01*
X42020Y14930D01*
X42012Y14993D01*
X42008Y15055D01*
Y15125D01*
X42312Y15168D01*
Y15164D01*
Y15157D01*
Y15141D01*
X42316Y15122D01*
Y15098D01*
X42320Y15071D01*
X42331Y15008D01*
X42343Y14938D01*
X42363Y14872D01*
X42390Y14813D01*
X42406Y14786D01*
X42421Y14763D01*
X42425Y14759D01*
X42441Y14747D01*
X42460Y14728D01*
X42491Y14712D01*
X42530Y14693D01*
X42577Y14673D01*
X42632Y14661D01*
X42694Y14657D01*
X42718D01*
X42741Y14661D01*
X42768Y14665D01*
X42803Y14673D01*
X42842Y14681D01*
X42878Y14696D01*
X42913Y14716D01*
X42917Y14720D01*
X42928Y14728D01*
X42944Y14739D01*
X42963Y14759D01*
X42987Y14778D01*
X43006Y14806D01*
X43026Y14837D01*
X43041Y14872D01*
Y14876D01*
X43049Y14891D01*
X43053Y14915D01*
X43061Y14950D01*
X43069Y14997D01*
X43073Y15051D01*
X43080Y15118D01*
Y15196D01*
Y16962D01*
X43420D01*
Y15215D01*
D02*
G37*
G36*
X45030Y14400D02*
X44714D01*
Y16405D01*
X44710Y16401D01*
X44695Y16385D01*
X44668Y16366D01*
X44633Y16338D01*
X44590Y16303D01*
X44539Y16268D01*
X44480Y16225D01*
X44414Y16186D01*
X44410D01*
X44406Y16182D01*
X44383Y16167D01*
X44348Y16147D01*
X44305Y16124D01*
X44254Y16096D01*
X44200Y16073D01*
X44141Y16046D01*
X44087Y16022D01*
Y16330D01*
X44090D01*
X44098Y16334D01*
X44114Y16342D01*
X44129Y16354D01*
X44153Y16366D01*
X44180Y16377D01*
X44243Y16412D01*
X44313Y16455D01*
X44391Y16506D01*
X44469Y16565D01*
X44543Y16627D01*
X44547Y16631D01*
X44551Y16635D01*
X44574Y16658D01*
X44609Y16693D01*
X44652Y16736D01*
X44699Y16791D01*
X44746Y16849D01*
X44789Y16912D01*
X44824Y16974D01*
X45030D01*
Y14400D01*
D02*
G37*
G36*
X28640Y53658D02*
X28711Y53654D01*
X28789Y53647D01*
X28863Y53635D01*
X28925Y53623D01*
X28929D01*
X28937Y53619D01*
X28945D01*
X28960Y53612D01*
X29003Y53600D01*
X29054Y53580D01*
X29112Y53557D01*
X29175Y53526D01*
X29237Y53487D01*
X29300Y53440D01*
X29304D01*
X29307Y53432D01*
X29335Y53409D01*
X29370Y53370D01*
X29413Y53319D01*
X29463Y53257D01*
X29514Y53183D01*
X29561Y53097D01*
X29604Y52999D01*
Y52995D01*
X29608Y52988D01*
X29612Y52972D01*
X29619Y52952D01*
X29627Y52929D01*
X29635Y52898D01*
X29647Y52863D01*
X29654Y52824D01*
X29662Y52781D01*
X29674Y52734D01*
X29690Y52633D01*
X29701Y52520D01*
X29705Y52395D01*
Y52391D01*
Y52383D01*
Y52368D01*
Y52344D01*
X29701Y52321D01*
Y52289D01*
X29697Y52219D01*
X29690Y52141D01*
X29674Y52052D01*
X29658Y51962D01*
X29635Y51876D01*
Y51872D01*
X29631Y51864D01*
X29627Y51853D01*
X29623Y51837D01*
X29608Y51798D01*
X29588Y51744D01*
X29565Y51685D01*
X29534Y51623D01*
X29498Y51560D01*
X29460Y51502D01*
X29456Y51494D01*
X29440Y51478D01*
X29421Y51451D01*
X29389Y51416D01*
X29358Y51381D01*
X29315Y51342D01*
X29272Y51303D01*
X29226Y51268D01*
X29222Y51264D01*
X29202Y51256D01*
X29175Y51240D01*
X29140Y51221D01*
X29097Y51201D01*
X29046Y51182D01*
X28988Y51162D01*
X28921Y51143D01*
X28914D01*
X28890Y51135D01*
X28855Y51131D01*
X28804Y51123D01*
X28746Y51116D01*
X28676Y51108D01*
X28598Y51104D01*
X28512Y51100D01*
X27591D01*
Y53662D01*
X28574D01*
X28640Y53658D01*
D02*
G37*
G36*
X27065Y53362D02*
X25552D01*
Y52574D01*
X26967D01*
Y52274D01*
X25552D01*
Y51400D01*
X27123D01*
Y51100D01*
X25212D01*
Y53662D01*
X27065D01*
Y53362D01*
D02*
G37*
G36*
X23539Y51400D02*
X24799D01*
Y51100D01*
X23200D01*
Y53662D01*
X23539D01*
Y51400D01*
D02*
G37*
%LPC*%
G36*
X23740Y49677D02*
Y49676D01*
X23739Y49674D01*
Y49670D01*
X23738Y49665D01*
X23736Y49658D01*
X23733Y49650D01*
X23729Y49631D01*
X23723Y49608D01*
X23716Y49584D01*
X23708Y49558D01*
X23699Y49531D01*
X23616Y49310D01*
X23873D01*
X23795Y49519D01*
Y49520D01*
X23793Y49523D01*
X23791Y49528D01*
X23789Y49535D01*
X23785Y49543D01*
X23782Y49552D01*
X23775Y49574D01*
X23766Y49599D01*
X23756Y49626D01*
X23748Y49652D01*
X23740Y49677D01*
D02*
G37*
G36*
X17147Y54278D02*
X16339D01*
Y53431D01*
X17104D01*
X17147Y53435D01*
X17197Y53439D01*
X17256Y53443D01*
X17318Y53451D01*
X17377Y53462D01*
X17427Y53478D01*
X17435Y53482D01*
X17451Y53486D01*
X17474Y53498D01*
X17502Y53513D01*
X17533Y53537D01*
X17568Y53564D01*
X17599Y53595D01*
X17626Y53630D01*
X17630Y53634D01*
X17638Y53650D01*
X17650Y53669D01*
X17661Y53700D01*
X17673Y53732D01*
X17685Y53771D01*
X17693Y53813D01*
X17696Y53860D01*
Y53864D01*
Y53868D01*
Y53891D01*
X17689Y53923D01*
X17681Y53966D01*
X17665Y54012D01*
X17642Y54063D01*
X17607Y54114D01*
X17564Y54161D01*
X17556Y54164D01*
X17540Y54180D01*
X17505Y54200D01*
X17462Y54219D01*
X17404Y54242D01*
X17334Y54258D01*
X17248Y54274D01*
X17147Y54278D01*
D02*
G37*
G36*
X28465Y53362D02*
X27931D01*
Y51400D01*
X28516D01*
X28559Y51404D01*
X28617Y51408D01*
X28679Y51412D01*
X28746Y51420D01*
X28808Y51432D01*
X28867Y51447D01*
X28874Y51451D01*
X28890Y51455D01*
X28917Y51467D01*
X28949Y51482D01*
X28988Y51502D01*
X29027Y51521D01*
X29062Y51548D01*
X29097Y51580D01*
X29101Y51584D01*
X29116Y51603D01*
X29140Y51630D01*
X29167Y51666D01*
X29194Y51712D01*
X29226Y51767D01*
X29257Y51833D01*
X29284Y51903D01*
Y51907D01*
X29288Y51911D01*
X29292Y51923D01*
X29296Y51938D01*
X29300Y51958D01*
X29307Y51981D01*
X29319Y52040D01*
X29331Y52114D01*
X29342Y52200D01*
X29350Y52293D01*
X29354Y52399D01*
Y52403D01*
Y52418D01*
Y52438D01*
Y52465D01*
X29350Y52500D01*
X29346Y52539D01*
X29342Y52582D01*
X29339Y52625D01*
X29323Y52726D01*
X29300Y52828D01*
X29265Y52925D01*
X29245Y52972D01*
X29222Y53015D01*
Y53019D01*
X29214Y53023D01*
X29210Y53034D01*
X29198Y53050D01*
X29171Y53089D01*
X29132Y53132D01*
X29085Y53183D01*
X29030Y53229D01*
X28968Y53272D01*
X28902Y53307D01*
X28894Y53311D01*
X28874Y53315D01*
X28843Y53323D01*
X28796Y53335D01*
X28734Y53346D01*
X28660Y53354D01*
X28570Y53358D01*
X28465Y53362D01*
D02*
G37*
%LPD*%
D10*
X45994Y26232D02*
G03*
X45994Y26232I-492J0D01*
G01*
X15994D02*
G03*
X15994Y26232I-492J0D01*
G01*
X31492Y21700D02*
G03*
X31492Y21700I-492J0D01*
G01*
D11*
X27797Y28346D02*
G03*
X27797Y28346I-197J0D01*
G01*
Y35846D02*
G03*
X27797Y35846I-197J0D01*
G01*
X41254Y18266D02*
Y20266D01*
X39753D02*
X41254D01*
X6254D02*
X7754D01*
X6254Y18266D02*
Y20266D01*
X41254Y10766D02*
X43253D01*
X41254D02*
Y12266D01*
X6254Y10766D02*
Y12266D01*
X4253Y10766D02*
X6254D01*
D12*
X33809Y31232D02*
X43809D01*
X33809Y21232D02*
X43809D01*
Y61232D01*
X33809D02*
X43809D01*
X33809Y21232D02*
Y61232D01*
X3809Y21232D02*
Y61232D01*
X13809D01*
Y21232D02*
Y61232D01*
X3809Y21232D02*
X13809D01*
X3809Y31232D02*
X13809D01*
M02*
