G04*
G04 #@! TF.GenerationSoftware,Altium Limited,Altium Designer,18.0.12 (696)*
G04*
G04 Layer_Physical_Order=1*
G04 Layer_Color=255*
%FSLAX25Y25*%
%MOIN*%
G70*
G01*
G75*
%ADD13R,0.03347X0.02756*%
%ADD14R,0.04724X0.07480*%
%ADD15R,0.06299X0.07480*%
%ADD16R,0.08268X0.07874*%
%ADD17R,0.01575X0.05315*%
%ADD18R,0.03000X0.03000*%
%ADD19R,0.03150X0.03150*%
%ADD27C,0.06102*%
%ADD28R,0.06102X0.06102*%
%ADD30C,0.01000*%
%ADD31C,0.01000*%
G36*
X22700Y64200D02*
Y50735D01*
X22245Y50454D01*
X22200Y50453D01*
X21725Y50547D01*
X19782D01*
Y51400D01*
X14836D01*
Y47072D01*
X14636D01*
Y45194D01*
X19982D01*
Y47072D01*
X19782D01*
Y47896D01*
X21176D01*
X22272Y46800D01*
Y43925D01*
X22700D01*
Y37150D01*
X20863Y35313D01*
X20575Y34883D01*
X20474Y34376D01*
Y26800D01*
X20575Y26293D01*
X20863Y25863D01*
X22637Y24089D01*
Y19989D01*
X20423D01*
Y20189D01*
X19135D01*
Y16532D01*
X18135D01*
Y20189D01*
X16848D01*
Y20189D01*
X16683D01*
Y20189D01*
X12049D01*
Y15252D01*
X11049D01*
Y20189D01*
X6415D01*
Y15252D01*
Y10740D01*
X3462D01*
Y6500D01*
X7612D01*
X11761D01*
Y10315D01*
X16683D01*
X17045Y9982D01*
Y6500D01*
X20407D01*
Y6000D01*
X20907D01*
Y1260D01*
X26600D01*
Y6000D01*
X27100D01*
Y6500D01*
X30462D01*
Y10166D01*
X30507Y10175D01*
X30631Y10258D01*
X31024Y10515D01*
X35746D01*
Y6500D01*
X39895D01*
X44045D01*
Y10740D01*
X40892D01*
Y15400D01*
X47700D01*
X47700Y-0D01*
X-100Y-0D01*
X-100Y15300D01*
X0Y15400D01*
Y64400D01*
X22500D01*
X22700Y64200D01*
D02*
G37*
G36*
X47600Y16900D02*
X47197Y16900D01*
X41092D01*
Y20189D01*
X36458D01*
Y15252D01*
X35458D01*
Y20189D01*
X30824D01*
Y20189D01*
X30659D01*
Y20189D01*
X29372D01*
Y16532D01*
X28372D01*
Y20189D01*
X27847D01*
Y23832D01*
X28127Y24216D01*
X30300D01*
Y26594D01*
X30800D01*
Y27094D01*
X33473D01*
Y28972D01*
X33273D01*
Y33299D01*
X28424D01*
Y33500D01*
X23824D01*
X23800Y33990D01*
Y34501D01*
X25699Y36400D01*
X28127D01*
Y34300D01*
X30300D01*
Y36678D01*
X30800D01*
Y37178D01*
X33473D01*
Y39056D01*
X33273D01*
Y43384D01*
X32125D01*
Y43925D01*
X32928D01*
Y48675D01*
X28178D01*
Y43925D01*
X29474D01*
Y43384D01*
X28327D01*
Y41000D01*
X23824D01*
X23800Y41490D01*
Y43925D01*
X27022D01*
Y48675D01*
X24147D01*
X23800Y49022D01*
Y64300D01*
X47600D01*
Y16900D01*
D02*
G37*
%LPC*%
G36*
X8809Y60116D02*
X7803Y59984D01*
X6866Y59596D01*
X6062Y58978D01*
X5445Y58174D01*
X5057Y57237D01*
X4924Y56232D01*
X5057Y55226D01*
X5445Y54289D01*
X6062Y53485D01*
X6866Y52868D01*
X7803Y52479D01*
X8809Y52347D01*
X9814Y52479D01*
X10751Y52868D01*
X11555Y53485D01*
X12173Y54289D01*
X12561Y55226D01*
X12693Y56232D01*
X12561Y57237D01*
X12173Y58174D01*
X11555Y58978D01*
X10751Y59596D01*
X9814Y59984D01*
X8809Y60116D01*
D02*
G37*
G36*
Y50116D02*
X7803Y49984D01*
X6866Y49596D01*
X6062Y48978D01*
X5445Y48174D01*
X5057Y47237D01*
X4924Y46232D01*
X5057Y45226D01*
X5445Y44289D01*
X6062Y43485D01*
X6866Y42868D01*
X7803Y42480D01*
X8809Y42347D01*
X9814Y42480D01*
X10751Y42868D01*
X11555Y43485D01*
X12173Y44289D01*
X12561Y45226D01*
X12693Y46232D01*
X12561Y47237D01*
X12173Y48174D01*
X11555Y48978D01*
X10751Y49596D01*
X9814Y49984D01*
X8809Y50116D01*
D02*
G37*
G36*
X19982Y44194D02*
X17809D01*
Y42316D01*
X19982D01*
Y44194D01*
D02*
G37*
G36*
X16809D02*
X14636D01*
Y42316D01*
X16809D01*
Y44194D01*
D02*
G37*
G36*
X19176Y41200D02*
X17176D01*
Y39200D01*
X19176D01*
Y41200D01*
D02*
G37*
G36*
X16176D02*
X14176D01*
Y39200D01*
X16176D01*
Y41200D01*
D02*
G37*
G36*
X19176Y38200D02*
X17176D01*
Y36200D01*
X19176D01*
Y38200D01*
D02*
G37*
G36*
X16176D02*
X14176D01*
Y36200D01*
X16176D01*
Y38200D01*
D02*
G37*
G36*
X8809Y40116D02*
X7803Y39984D01*
X6866Y39596D01*
X6062Y38978D01*
X5445Y38174D01*
X5057Y37237D01*
X4924Y36232D01*
X5057Y35226D01*
X5445Y34289D01*
X6062Y33485D01*
X6866Y32868D01*
X7803Y32480D01*
X8809Y32347D01*
X9814Y32480D01*
X10751Y32868D01*
X11555Y33485D01*
X12173Y34289D01*
X12561Y35226D01*
X12693Y36232D01*
X12561Y37237D01*
X12173Y38174D01*
X11555Y38978D01*
X10751Y39596D01*
X9814Y39984D01*
X8809Y40116D01*
D02*
G37*
G36*
X19176Y33700D02*
X17176D01*
Y31700D01*
X19176D01*
Y33700D01*
D02*
G37*
G36*
X16176D02*
X14176D01*
Y31700D01*
X16176D01*
Y33700D01*
D02*
G37*
G36*
X19176Y30700D02*
X17176D01*
Y28700D01*
X19176D01*
Y30700D01*
D02*
G37*
G36*
X16176D02*
X14176D01*
Y28700D01*
X16176D01*
Y30700D01*
D02*
G37*
G36*
X12860Y30283D02*
X9309D01*
Y26732D01*
X12860D01*
Y30283D01*
D02*
G37*
G36*
X8309D02*
X4758D01*
Y26732D01*
X8309D01*
Y30283D01*
D02*
G37*
G36*
X12860Y25732D02*
X9309D01*
Y22180D01*
X12860D01*
Y25732D01*
D02*
G37*
G36*
X8309D02*
X4758D01*
Y22180D01*
X8309D01*
Y25732D01*
D02*
G37*
G36*
X44045Y5500D02*
X40395D01*
Y1260D01*
X44045D01*
Y5500D01*
D02*
G37*
G36*
X39395D02*
X35746D01*
Y1260D01*
X39395D01*
Y5500D01*
D02*
G37*
G36*
X30462D02*
X27600D01*
Y1260D01*
X30462D01*
Y5500D01*
D02*
G37*
G36*
X19907D02*
X17045D01*
Y1260D01*
X19907D01*
Y5500D01*
D02*
G37*
G36*
X11761D02*
X8112D01*
Y1260D01*
X11761D01*
Y5500D01*
D02*
G37*
G36*
X7112D02*
X3462D01*
Y1260D01*
X7112D01*
Y5500D01*
D02*
G37*
G36*
X39309Y60252D02*
Y56731D01*
X42829D01*
X42756Y57289D01*
X42347Y58275D01*
X41698Y59121D01*
X40852Y59770D01*
X39866Y60179D01*
X39309Y60252D01*
D02*
G37*
G36*
X38309Y60252D02*
X37751Y60179D01*
X36766Y59770D01*
X35919Y59121D01*
X35270Y58275D01*
X34862Y57289D01*
X34788Y56731D01*
X38309D01*
Y60252D01*
D02*
G37*
G36*
X42829Y55731D02*
X39309D01*
Y52211D01*
X39866Y52285D01*
X40852Y52693D01*
X41698Y53342D01*
X42347Y54189D01*
X42756Y55174D01*
X42829Y55731D01*
D02*
G37*
G36*
X38309D02*
X34788D01*
X34862Y55174D01*
X35270Y54189D01*
X35919Y53342D01*
X36766Y52693D01*
X37751Y52285D01*
X38309Y52211D01*
Y55731D01*
D02*
G37*
G36*
X38809Y50116D02*
X37803Y49984D01*
X36867Y49596D01*
X36062Y48978D01*
X35445Y48174D01*
X35057Y47237D01*
X34924Y46232D01*
X35057Y45226D01*
X35445Y44289D01*
X36062Y43485D01*
X36867Y42868D01*
X37803Y42480D01*
X38809Y42347D01*
X39814Y42480D01*
X40751Y42868D01*
X41555Y43485D01*
X42173Y44289D01*
X42561Y45226D01*
X42693Y46232D01*
X42561Y47237D01*
X42173Y48174D01*
X41555Y48978D01*
X40751Y49596D01*
X39814Y49984D01*
X38809Y50116D01*
D02*
G37*
G36*
X33473Y36178D02*
X31300D01*
Y34300D01*
X33473D01*
Y36178D01*
D02*
G37*
G36*
X38809Y40116D02*
X37803Y39984D01*
X36867Y39596D01*
X36062Y38978D01*
X35445Y38174D01*
X35057Y37237D01*
X34924Y36232D01*
X35057Y35226D01*
X35445Y34289D01*
X36062Y33485D01*
X36867Y32868D01*
X37803Y32480D01*
X38809Y32347D01*
X39814Y32480D01*
X40751Y32868D01*
X41555Y33485D01*
X42173Y34289D01*
X42561Y35226D01*
X42693Y36232D01*
X42561Y37237D01*
X42173Y38174D01*
X41555Y38978D01*
X40751Y39596D01*
X39814Y39984D01*
X38809Y40116D01*
D02*
G37*
G36*
X33473Y26094D02*
X31300D01*
Y24216D01*
X33473D01*
Y26094D01*
D02*
G37*
G36*
X42660Y30083D02*
X34958D01*
Y22380D01*
X42660D01*
Y30083D01*
D02*
G37*
%LPD*%
D13*
X17309Y49222D02*
D03*
Y44694D02*
D03*
X30800Y36678D02*
D03*
Y41206D02*
D03*
Y31121D02*
D03*
Y26594D02*
D03*
D14*
X20407Y6000D02*
D03*
X27100D02*
D03*
D15*
X7612D02*
D03*
X39895D02*
D03*
D16*
X11549Y15252D02*
D03*
X35958D02*
D03*
D17*
X18635Y16532D02*
D03*
X21194D02*
D03*
X23753D02*
D03*
X26313D02*
D03*
X28872D02*
D03*
D18*
X26124Y31200D02*
D03*
X16676D02*
D03*
X26124Y38700D02*
D03*
X16676D02*
D03*
D19*
X30553Y46300D02*
D03*
X24647D02*
D03*
D27*
X38809Y56232D02*
D03*
Y46232D02*
D03*
Y36232D02*
D03*
X8809D02*
D03*
Y46232D02*
D03*
Y56232D02*
D03*
D28*
X38809Y26232D02*
D03*
X8809D02*
D03*
D30*
X39895Y8232D02*
X40104D01*
X16983D02*
X39895D01*
Y6000D02*
Y8232D01*
X11549Y15252D02*
X12828Y16532D01*
X18635D01*
X6254Y12266D02*
X9240Y15252D01*
X11549D01*
X23962Y14016D02*
Y24638D01*
X17500Y11400D02*
X21346D01*
X23962Y14016D01*
X4600Y8200D02*
X16952D01*
X3100Y9700D02*
X4600Y8200D01*
X3100Y9700D02*
Y20523D01*
X30800Y36678D02*
X34100Y33378D01*
Y28691D02*
Y33378D01*
X31162Y25753D02*
X34100Y28691D01*
X31162Y25753D02*
Y26594D01*
X34000Y51423D02*
X38809Y56232D01*
X34000Y39100D02*
Y51423D01*
X31578Y36678D02*
X34000Y39100D01*
X30800Y36678D02*
X31578D01*
X28872Y24665D02*
X30800Y26594D01*
X28872Y16532D02*
Y24665D01*
X28600Y11400D02*
X30000D01*
X26313Y13687D02*
X28600Y11400D01*
X26521Y15279D02*
Y30803D01*
X26313Y13687D02*
Y16532D01*
X16952Y8200D02*
X16983Y8232D01*
X8809Y26232D02*
X13777Y31200D01*
X16676D01*
X3100Y20523D02*
X8809Y26232D01*
X26203Y31121D02*
X26521Y30803D01*
X26124Y31200D02*
X26203Y31121D01*
X30800D01*
X16676Y38700D02*
X17309Y39333D01*
Y44694D01*
Y49222D02*
X21725D01*
X24647Y46300D01*
X30553D02*
X30800Y46053D01*
Y41206D02*
Y46053D01*
X21800Y26800D02*
X23962Y24638D01*
X21800Y26800D02*
Y34376D01*
X26124Y38700D01*
X16676Y31200D02*
Y38700D01*
X18844Y18763D02*
Y29032D01*
X16676Y31200D02*
X18844Y29032D01*
D31*
X30000Y11400D02*
D03*
X17500D02*
D03*
M02*
